#!OML:ASF F:\VICON\USERDATA\INSTALL\rory3\rory3.ASF
:FULLY-SPECIFIED
:DEGREES
1231
root -0.0281026 17.4396 2.46024 89.5552 -94.5374 -88.6622
lowerback 6.06885 1.19136 -2.44711
upperback 0.250321 1.50375 4.03114
thorax -3.3226 0.797365 5.4411
lowerneck -20.108 -3.90682 -16.3663
upperneck -23.7865 -3.40786 7.94001
head -3.88006 -1.37308 5.27042
rclavicle -5.06901e-015 -1.74931e-014
rhumerus -21.0508 3.99867 -64.3909
rradius 43.3102
rwrist 3.14715
rhand -25.6189 2.33232
rfingers 7.12502
rthumb 0.913806 -27.6455
lclavicle -5.06901e-015 -1.74931e-014
lhumerus 10.4965 0.622337 39.0661
lradius 104.238
lwrist 7.25157
lhand -21.4662 24.7682
lfingers 7.12502
lthumb 4.92423 54.6909
rfemur -14.6444 3.21555 10.5481
rtibia 41.1295
rfoot -22.9855 1.28549
rtoes 0.96718
lfemur -19.4486 9.63284 -19.5303
ltibia 54.435
lfoot -10.3908 -10.5059
ltoes -23.0181
1232
root -0.0233157 17.4367 2.46749 88.6522 -94.6049 -87.8671
lowerback 6.06032 1.39638 -2.71333
upperback 0.099708 1.76482 3.94624
thorax -3.50957 0.94045 5.47868
lowerneck -19.5658 -3.77373 -15.664
upperneck -23.8443 -3.43116 7.66093
head -3.9729 -1.42278 5.0689
rclavicle -9.54166e-015 7.95139e-015
rhumerus -20.8808 3.41984 -63.9408
rradius 43.3676
rwrist 3.42434
rhand -26.1327 2.2377
rfingers 7.12502
rthumb 0.417535 -27.7416
lclavicle -9.54166e-015 7.95139e-015
lhumerus 14.2642 2.26311 36.7751
lradius 102.617
lwrist 6.15535
lhand -21.7722 24.5934
lfingers 7.12502
lthumb 4.62873 54.5228
rfemur -14.6088 3.07238 10.4575
rtibia 41.235
rfoot -22.9594 1.42323
rtoes 1.34269
lfemur -19.36 9.80661 -19.967
ltibia 54.4996
lfoot -9.52173 -10.8911
ltoes -23.4543
1233
root -0.0183496 17.4289 2.47774 88.0818 -94.662 -87.4114
lowerback 6.04618 1.47346 -2.97167
upperback 0.0197386 1.8538 3.94927
thorax -3.60398 0.994202 5.62128
lowerneck -19.5387 -3.68158 -15.3234
upperneck -23.6144 -3.33981 7.62723
head -3.91071 -1.39908 4.99642
rclavicle -2.18663e-015 -2.38542e-014
rhumerus -20.3682 3.34679 -63.4138
rradius 43.3878
rwrist 3.48775
rhand -26.3744 2.06082
rfingers 7.12502
rthumb 0.184174 -27.9188
lclavicle -2.18663e-015 -2.38542e-014
lhumerus 17.8505 4.28903 34.6484
lradius 100.521
lwrist 5.06621
lhand -21.8535 24.2792
lfingers 7.12502
lthumb 4.55019 54.2103
rfemur -14.5777 2.8912 10.3278
rtibia 41.3478
rfoot -22.8567 1.73871
rtoes 1.68661
lfemur -19.2572 9.94009 -20.4267
ltibia 54.4905
lfoot -8.69695 -11.2266
ltoes -23.7273
1234
root -0.0144829 17.422 2.48827 88.1738 -94.7341 -87.6599
lowerback 6.11255 1.44949 -3.31894
upperback -0.0509912 1.80119 4.03758
thorax -3.72325 0.980007 5.91845
lowerneck -19.737 -3.59038 -15.135
upperneck -23.2257 -3.18849 7.64994
head -3.77356 -1.33834 4.96239
rclavicle -3.47873e-015 -4.29375e-014
rhumerus -19.5939 3.42922 -62.7888
rradius 43.1992
rwrist 3.96471
rhand -26.2009 2.3097
rfingers 7.12502
rthumb 0.35168 -27.6697
lclavicle -3.47873e-015 -4.29375e-014
lhumerus 21.178 6.62608 32.6607
lradius 98.0095
lwrist 3.99864
lhand -21.6522 23.9943
lfingers 7.12502
lthumb 4.74463 53.9212
rfemur -14.4708 2.73717 10.1897
rtibia 41.439
rfoot -22.7004 1.92915
rtoes 1.55792
lfemur -19.0917 9.97307 -20.8909
ltibia 54.4001
lfoot -7.98355 -11.6936
ltoes -23.5835
1235
root -0.0130331 17.4195 2.50325 88.4164 -94.7663 -88.068
lowerback 6.25875 1.46855 -3.56618
upperback -0.210599 1.81134 4.04071
thorax -3.98188 1.00127 6.06055
lowerneck -19.7603 -3.44751 -14.7144
upperneck -22.8003 -3.03141 7.56395
head -3.6511 -1.28537 4.85544
rclavicle 9.98893e-015 -2.06736e-014
rhumerus -19.208 3.2808 -62.3417
rradius 43.2201
rwrist 4.19686
rhand -26.5081 2.20892
rfingers 7.12502
rthumb 0.0550075 -27.7708
lclavicle 9.98893e-015 -2.06736e-014
lhumerus 24.628 8.76198 30.7736
lradius 95.1389
lwrist 3.33634
lhand -22.0612 23.5831
lfingers 7.12502
lthumb 4.34967 53.5184
rfemur -14.3079 2.65307 10.0864
rtibia 41.469
rfoot -22.5537 1.99924
rtoes 0.872116
lfemur -18.8837 10.0029 -21.3292
ltibia 54.2443
lfoot -7.31547 -12.1931
ltoes -23.2289
1236
root -0.0136009 17.4185 2.52077 89.4743 -94.7261 -89.2514
lowerback 6.36754 1.44 -3.77312
upperback -0.381746 1.76109 4.08186
thorax -4.22383 0.99236 6.2273
lowerneck -19.8705 -3.29867 -14.3754
upperneck -22.3721 -2.84177 7.53035
head -3.51844 -1.21152 4.78037
rclavicle 2.88238e-015 -2.06736e-014
rhumerus -19.0084 3.08712 -61.9564
rradius 43.4398
rwrist 4.37079
rhand -26.9678 2.02258
rfingers 7.12502
rthumb -0.388967 -27.9568
lclavicle 2.88238e-015 -2.06736e-014
lhumerus 27.9979 10.6356 29.0146
lradius 92.0347
lwrist 3.5341
lhand -22.9078 23.3698
lfingers 7.12502
lthumb 3.53212 53.3202
rfemur -14.1347 2.54983 10.0556
rtibia 41.4371
rfoot -22.5817 2.09911
rtoes 0.918088
lfemur -18.6986 9.89402 -21.7016
ltibia 54.0518
lfoot -6.57516 -12.4106
ltoes -21.8834
1237
root -0.0156593 17.4167 2.5394 90.1136 -94.6873 -90.027
lowerback 6.4844 1.36236 -4.09201
upperback -0.520121 1.63712 4.22163
thorax -4.43261 0.949265 6.57335
lowerneck -20.0287 -3.0738 -13.8517
upperneck -22.0266 -2.62704 7.24447
head -3.4191 -1.13711 4.59655
rclavicle 1.6847e-014 1.11319e-014
rhumerus -18.6115 3.12816 -61.447
rradius 43.5429
rwrist 4.6495
rhand -26.8647 2.26146
rfingers 7.12502
rthumb -0.2894 -27.7181
lclavicle 1.6847e-014 1.11319e-014
lhumerus 31.1536 12.4915 27.3392
lradius 88.6024
lwrist 4.6052
lhand -21.5892 23.1544
lfingers 7.12502
lthumb 4.80542 53.0799
rfemur -13.9241 2.46597 9.99849
rtibia 41.357
rfoot -22.6527 2.36851
rtoes 1.66854
lfemur -18.4899 9.75199 -22.0801
ltibia 53.8345
lfoot -6.02612 -12.1812
ltoes -19.8102
1238
root -0.0183372 17.4153 2.55963 89.2088 -94.5936 -89.2745
lowerback 6.64806 1.28273 -4.39066
upperback -0.664751 1.51062 4.4032
thorax -4.67354 0.907037 6.95503
lowerneck -20.1199 -2.8266 -13.4631
upperneck -21.7405 -2.36681 7.02675
head -3.34814 -1.03247 4.46269
rclavicle -7.62836e-015 -2.38542e-014
rhumerus -18.1375 3.37323 -60.9456
rradius 43.6299
rwrist 4.54267
rhand -26.9072 2.95031
rfingers 7.12502
rthumb -0.330462 -27.0292
lclavicle -7.62836e-015 -2.38542e-014
lhumerus 34.1633 14.3987 25.8286
lradius 84.8165
lwrist 5.9188
lhand -19.4466 22.6972
lfingers 7.12502
lthumb 6.87408 52.5656
rfemur -13.6909 2.53654 10.0268
rtibia 41.2315
rfoot -22.5235 2.51138
rtoes 2.35432
lfemur -18.2195 9.72472 -22.4181
ltibia 53.6081
lfoot -6.44879 -11.2651
ltoes -19.822
1239
root -0.0217881 17.4232 2.58553 88.8028 -94.4218 -88.9896
lowerback 6.77579 1.18997 -4.60101
upperback -0.830999 1.37358 4.58016
thorax -4.9112 0.85887 7.28479
lowerneck -20.1987 -2.61067 -13.2495
upperneck -21.3749 -2.08073 7.05498
head -3.24612 -0.904551 4.4372
rclavicle 1.68967e-015 2.54444e-014
rhumerus -17.8238 3.58267 -60.5796
rradius 43.8845
rwrist 4.25057
rhand -27.3156 3.16219
rfingers 7.12502
rthumb -0.72493 -26.8163
lclavicle 1.68967e-015 2.54444e-014
lhumerus 37.1348 16.3094 24.4
lradius 80.6954
lwrist 6.72264
lhand -18.1701 22.594
lfingers 7.12502
lthumb 8.10613 52.4186
rfemur -13.4712 2.42791 10.1465
rtibia 41.0597
rfoot -22.1876 2.36286
rtoes 1.275
lfemur -17.8969 9.52459 -22.6416
ltibia 53.3755
lfoot -7.3611 -9.62859
ltoes -20.4654
1240
root -0.0261782 17.4356 2.61371 88.4149 -94.2853 -88.7173
lowerback 6.9101 1.08836 -4.91436
upperback -0.981924 1.21576 4.78263
thorax -5.13527 0.804176 7.70751
lowerneck -20.5542 -2.55555 -13.4972
upperneck -20.6863 -1.82642 7.54919
head -2.99007 -0.764294 4.62882
rclavicle -1.05107e-014 -2.70347e-014
rhumerus -17.5177 3.89036 -60.2107
rradius 44.2171
rwrist 3.85327
rhand -27.5247 3.2064
rfingers 7.12502
rthumb -0.926907 -26.7713
lclavicle -1.05107e-014 -2.70347e-014
lhumerus 39.8368 18.126 22.8897
lradius 76.3587
lwrist 7.22252
lhand -17.5142 22.5749
lfingers 7.12502
lthumb 8.73913 52.374
rfemur -13.2404 2.31805 10.1931
rtibia 40.845
rfoot -21.945 2.39095
rtoes 1.29575
lfemur -17.5334 9.19239 -22.8937
ltibia 53.1326
lfoot -8.12001 -7.86829
ltoes -22.2995
1241
root -0.0298276 17.4449 2.64722 88.8891 -94.1432 -89.343
lowerback 7.07306 0.974172 -5.2021
upperback -1.08233 1.04173 5.04837
thorax -5.31825 0.739331 8.1896
lowerneck -21.1255 -2.74378 -14.5484
upperneck -19.8387 -1.66735 8.54478
head -2.6372 -0.619792 5.11062
rclavicle 6.03808e-015 1.59028e-015
rhumerus -17.0794 4.06434 -59.6957
rradius 44.4874
rwrist 3.67224
rhand -27.4431 3.47008
rfingers 7.12502
rthumb -0.848092 -26.508
lclavicle 6.03808e-015 1.59028e-015
lhumerus 42.3673 19.8879 21.6113
lradius 72.058
lwrist 7.59055
lhand -16.9725 22.8941
lfingers 7.12502
lthumb 9.26186 52.6706
rfemur -12.926 2.28807 10.2179
rtibia 40.5686
rfoot -21.8295 2.48659
rtoes 2.19719
lfemur -17.1278 8.84301 -23.1324
ltibia 52.8738
lfoot -8.59259 -6.76214
ltoes -23.9922
1242
root -0.0346554 17.4522 2.68759 89.8913 -94.0325 -90.4105
lowerback 7.11011 0.870206 -5.48569
upperback -1.16967 0.887124 5.42157
thorax -5.41927 0.682265 8.78877
lowerneck -21.5341 -2.89036 -15.5971
upperneck -19.3345 -1.52589 9.21973
head -2.4264 -0.484363 5.49933
rclavicle 4.263e-015 -2.54444e-014
rhumerus -16.5297 4.28986 -58.8904
rradius 44.7333
rwrist 3.68808
rhand -27.1625 3.75568
rfingers 7.12502
rthumb -0.577039 -26.2233
lclavicle 4.263e-015 -2.54444e-014
lhumerus 44.8456 21.6178 20.8889
lradius 67.7512
lwrist 7.49225
lhand -16.1993 23.2832
lfingers 7.12502
lthumb 10.0078 53.0253
rfemur -12.6992 2.01874 10.1381
rtibia 40.268
rfoot -21.582 2.73797
rtoes 2.71295
lfemur -16.7843 8.41438 -23.4122
ltibia 52.5687
lfoot -8.98697 -5.84547
ltoes -24.3783
1243
root -0.0450445 17.4673 2.73148 88.5902 -93.8923 -89.1262
lowerback 7.10993 0.810238 -5.73508
upperback -1.34004 0.796992 5.82731
thorax -5.59816 0.663598 9.40261
lowerneck -21.6508 -2.87159 -16.1049
upperneck -19.0822 -1.36549 9.39477
head -2.35007 -0.374252 5.64323
rclavicle 6.02566e-015 3.02153e-014
rhumerus -16.145 4.63732 -57.9875
rradius 45.0056
rwrist 3.94375
rhand -26.7907 4.0128
rfingers 7.12502
rthumb -0.217894 -25.9668
lclavicle 6.02566e-015 3.02153e-014
lhumerus 47.32 23.1608 20.4823
lradius 63.1668
lwrist 6.77897
lhand -15.1496 22.9399
lfingers 7.12502
lthumb 11.0205 52.6306
rfemur -12.5493 1.71135 10.0589
rtibia 39.983
rfoot -21.1131 3.11493
rtoes 2.79697
lfemur -16.4333 7.89333 -23.6532
ltibia 52.1727
lfoot -9.30755 -4.6195
ltoes -23.9886
1244
root -0.0583853 17.4852 2.77647 86.6305 -93.8665 -87.2411
lowerback 7.16556 0.849611 -6.05312
upperback -1.52865 0.830986 6.15349
thorax -5.85449 0.714841 9.95993
lowerneck -21.652 -2.9108 -16.3624
upperneck -18.8716 -1.35569 9.40225
head -2.28768 -0.353023 5.68336
rclavicle 2.48481e-016 6.36111e-014
rhumerus -16.0498 4.67923 -57.072
rradius 45.3536
rwrist 4.23954
rhand -26.8127 4.47055
rfingers 7.12502
rthumb -0.23915 -25.5091
lclavicle 2.48481e-016 6.36111e-014
lhumerus 50.1082 24.4987 20.4606
lradius 58.5418
lwrist 5.53214
lhand -14.6816 22.6928
lfingers 7.12502
lthumb 11.4718 52.3589
rfemur -12.3804 1.48348 9.86305
rtibia 39.7684
rfoot -20.5329 3.42925
rtoes 2.80614
lfemur -15.9828 7.25328 -24.0031
ltibia 51.6629
lfoot -9.57816 -3.46468
ltoes -24.1173
1245
root -0.0713843 17.5024 2.8262 85.5044 -93.9008 -86.1861
lowerback 7.22082 0.860703 -6.40681
upperback -1.7277 0.822759 6.45663
thorax -6.11483 0.749167 10.5235
lowerneck -21.642 -2.84663 -16.3586
upperneck -18.6393 -1.28351 9.17571
head -2.23403 -0.316524 5.60557
rclavicle -6.41081e-015 -4.77083e-015
rhumerus -16.0726 4.7814 -56.2991
rradius 45.8283
rwrist 4.29759
rhand -27.335 4.69352
rfingers 7.12502
rthumb -0.743681 -25.2849
lclavicle -6.41081e-015 -4.77083e-015
lhumerus 52.88 25.7619 20.5145
lradius 54.0019
lwrist 3.98247
lhand -14.8547 22.7573
lfingers 7.12502
lthumb 11.3049 52.4327
rfemur -12.2615 1.24335 9.57623
rtibia 39.6411
rfoot -19.917 3.71599
rtoes 2.92669
lfemur -15.492 6.65966 -24.4332
ltibia 51.0418
lfoot -9.83067 -2.57356
ltoes -26.2174
